# xmcd
#
# Track frame offsets: 
#        150
#        32107
#        54752
#        113779
#        128904
#        148313
#        167345
#        191254
#        229715
#
# Disc length: 3412 seconds
#
# Revision: 0
# Processed by: cddbd v1.5.2PL0 Copyright (c) Steve Scherf et al.
# Submitted via: ExactAudioCopy v1.0b1
#
DISCID=700d5209
DTITLE=Jimi Hendrix  - A Magic Time  
DYEAR=1900
DGENRE=
TTITLE0=Come On (part 1)
TTITLE1=Spanish Castle Magic
TTITLE2=Red House
TTITLE3=Fire
TTITLE4=Foxy Lady
TTITLE5=All Along The Watchtower
TTITLE6=Hey Joe
TTITLE7=Voodoo Child
TTITLE8=Purple Haze
EXTD=
EXTT0=
EXTT1=
EXTT2=
EXTT3=
EXTT4=
EXTT5=
EXTT6=
EXTT7=
EXTT8=
PLAYORDER=
